<svg width="800" height="600" viewBox="0 0 800 600" fill="none" xmlns="http://www.w3.org/2000/svg">
  <rect width="800" height="600" fill="#0B1120" rx="16"/>

  <text x="32" y="48" font-family="system-ui" font-size="24" font-weight="700" fill="#FFFFFF">Getting Started</text>
  <text x="32" y="76" font-family="system-ui" font-size="14" fill="#9CA3AF">Complete these tasks to get the most out of Ghoste</text>

  <g transform="translate(32, 110)">
    <rect width="736" height="72" rx="12" fill="#1F2937" stroke="#10B981" stroke-width="2"/>
    <circle cx="28" cy="36" r="12" fill="#10B981"/>
    <path d="M24 36l3 3 6-6" stroke="#FFFFFF" stroke-width="2" fill="none"/>
    <text x="56" y="32" font-family="system-ui" font-size="15" font-weight="600" fill="#FFFFFF">Create your first Smart Link</text>
    <text x="56" y="52" font-family="system-ui" font-size="13" fill="#9CA3AF">Share trackable links across all platforms</text>
  </g>

  <g transform="translate(32, 194)">
    <rect width="736" height="72" rx="12" fill="#1F2937" stroke="#374151" stroke-width="1"/>
    <circle cx="28" cy="36" r="12" fill="#374151" stroke="#4B5563" stroke-width="2"/>
    <text x="56" y="32" font-family="system-ui" font-size="15" font-weight="600" fill="#FFFFFF">Create a One-Click Link</text>
    <text x="56" y="52" font-family="system-ui" font-size="13" fill="#9CA3AF">Perfect for Instagram bio and quick shares</text>
  </g>

  <g transform="translate(32, 278)">
    <rect width="736" height="72" rx="12" fill="#1F2937" stroke="#374151" stroke-width="1"/>
    <circle cx="28" cy="36" r="12" fill="#374151" stroke="#4B5563" stroke-width="2"/>
    <text x="56" y="32" font-family="system-ui" font-size="15" font-weight="600" fill="#FFFFFF">Draft your first broadcast</text>
    <text x="56" y="52" font-family="system-ui" font-size="13" fill="#9CA3AF">Engage fans with targeted messages</text>
  </g>

  <g transform="translate(32, 362)">
    <rect width="736" height="72" rx="12" fill="#1F2937" stroke="#374151" stroke-width="1"/>
    <circle cx="28" cy="36" r="12" fill="#374151" stroke="#4B5563" stroke-width="2"/>
    <text x="56" y="32" font-family="system-ui" font-size="15" font-weight="600" fill="#FFFFFF">Connect Meta (optional)</text>
    <text x="56" y="52" font-family="system-ui" font-size="13" fill="#9CA3AF">Enable pixel tracking for better ad performance</text>
  </g>

  <g transform="translate(32, 446)">
    <rect width="736" height="72" rx="12" fill="#1F2937" stroke="#374151" stroke-width="1"/>
    <circle cx="28" cy="36" r="12" fill="#374151" stroke="#4B5563" stroke-width="2"/>
    <text x="56" y="32" font-family="system-ui" font-size="15" font-weight="600" fill="#FFFFFF">Invite a collaborator to splits</text>
    <text x="56" y="52" font-family="system-ui" font-size="13" fill="#9CA3AF">Start royalty negotiations with your team</text>
  </g>

  <text x="32" y="560" font-family="system-ui" font-size="13" fill="#9CA3AF">1 of 5 complete</text>
</svg>
