<svg width="1200" height="800" viewBox="0 0 1200 800" fill="none" xmlns="http://www.w3.org/2000/svg">
  <rect width="1200" height="800" fill="#0A0F29"/>
  <rect width="1200" height="64" fill="#0B1120"/>
  <text x="24" y="40" font-family="system-ui" font-size="20" font-weight="600" fill="#E5E7EB">Wallet</text>

  <g transform="translate(80, 120)">
    <rect width="1040" height="600" rx="20" fill="#0B1120" stroke="#1F2937" stroke-width="1"/>

    <text x="40" y="60" font-family="system-ui" font-size="32" font-weight="700" fill="#FFFFFF">7,500 Credits</text>
    <text x="40" y="90" font-family="system-ui" font-size="14" fill="#9CA3AF">Free Plan • Resets April 1st</text>

    <rect x="40" y="120" width="960" height="2" fill="#1F2937"/>

    <text x="40" y="170" font-family="system-ui" font-size="18" font-weight="600" fill="#FFFFFF">Credit Costs</text>

    <g transform="translate(40, 200)">
      <rect width="280" height="80" rx="12" fill="#1F2937"/>
      <text x="20" y="30" font-family="system-ui" font-size="14" fill="#9CA3AF">Smart Link</text>
      <text x="20" y="55" font-family="system-ui" font-size="24" font-weight="700" fill="#3B82F6">50</text>
      <text x="70" y="55" font-family="system-ui" font-size="14" fill="#9CA3AF">credits</text>
    </g>

    <g transform="translate(340, 200)">
      <rect width="280" height="80" rx="12" fill="#1F2937"/>
      <text x="20" y="30" font-family="system-ui" font-size="14" fill="#9CA3AF">One-Click Link</text>
      <text x="20" y="55" font-family="system-ui" font-size="24" font-weight="700" fill="#10B981">30</text>
      <text x="70" y="55" font-family="system-ui" font-size="14" fill="#9CA3AF">credits</text>
    </g>

    <g transform="translate(640, 200)">
      <rect width="280" height="80" rx="12" fill="#1F2937"/>
      <text x="20" y="30" font-family="system-ui" font-size="14" fill="#9CA3AF">Pre-Save Link</text>
      <text x="20" y="55" font-family="system-ui" font-size="24" font-weight="700" fill="#EC4899">75</text>
      <text x="70" y="55" font-family="system-ui" font-size="14" fill="#9CA3AF">credits</text>
    </g>

    <g transform="translate(40, 300)">
      <rect width="280" height="80" rx="12" fill="#1F2937"/>
      <text x="20" y="30" font-family="system-ui" font-size="14" fill="#9CA3AF">AI Request</text>
      <text x="20" y="55" font-family="system-ui" font-size="24" font-weight="700" fill="#F59E0B">20</text>
      <text x="70" y="55" font-family="system-ui" font-size="14" fill="#9CA3AF">credits</text>
    </g>

    <g transform="translate(340, 300)">
      <rect width="280" height="80" rx="12" fill="#1F2937"/>
      <text x="20" y="30" font-family="system-ui" font-size="14" fill="#9CA3AF">Broadcast</text>
      <text x="20" y="55" font-family="system-ui" font-size="24" font-weight="700" fill="#8B5CF6">100</text>
      <text x="88" y="55" font-family="system-ui" font-size="14" fill="#9CA3AF">credits</text>
    </g>

    <g transform="translate(640, 300)">
      <rect width="280" height="80" rx="12" fill="#1F2937"/>
      <text x="20" y="30" font-family="system-ui" font-size="14" fill="#9CA3AF">Cover Art</text>
      <text x="20" y="55" font-family="system-ui" font-size="24" font-weight="700" fill="#06B6D4">150</text>
      <text x="88" y="55" font-family="system-ui" font-size="14" fill="#9CA3AF">credits</text>
    </g>

    <rect x="40" y="420" width="400" height="48" rx="12" fill="#3B82F6"/>
    <text x="160" y="449" font-family="system-ui" font-size="15" font-weight="600" fill="#FFFFFF">Upgrade Plan</text>
  </g>
</svg>
